<?xml version="1.0" encoding="UTF-8" standalone="no"?>
<!-- Created with Inkscape (http://www.inkscape.org/) -->

<svg
   width="150mm"
   height="150mm"
   viewBox="0 0 150 150"
   version="1.1"
   id="svg1"
   inkscape:version="1.3 (0e150ed6c4, 2023-07-21)"
   sodipodi:docname="84.svg"
   inkscape:export-filename="84.png"
   inkscape:export-xdpi="32.512001"
   inkscape:export-ydpi="32.512001"
   xmlns:inkscape="http://www.inkscape.org/namespaces/inkscape"
   xmlns:sodipodi="http://sodipodi.sourceforge.net/DTD/sodipodi-0.dtd"
   xmlns="http://www.w3.org/2000/svg"
   xmlns:svg="http://www.w3.org/2000/svg">
  <sodipodi:namedview
     id="namedview1"
     pagecolor="#ffffff"
     bordercolor="#000000"
     borderopacity="0.25"
     inkscape:showpageshadow="2"
     inkscape:pageopacity="0.0"
     inkscape:pagecheckerboard="0"
     inkscape:deskcolor="#d1d1d1"
     inkscape:document-units="mm"
     inkscape:zoom="1.4614334"
     inkscape:cx="268.22981"
     inkscape:cy="288.41547"
     inkscape:window-width="1855"
     inkscape:window-height="1080"
     inkscape:window-x="0"
     inkscape:window-y="0"
     inkscape:window-maximized="0"
     inkscape:current-layer="layer1"
     inkscape:export-bgcolor="#ffffff00" />
  <defs
     id="defs1" />
  <g
     inkscape:label="Lager 1"
     inkscape:groupmode="layer"
     id="layer1">
    <rect
       style="display:none;fill:#000000;fill-opacity:1;stroke:none;stroke-width:3.86501"
       id="rect1"
       width="150"
       height="150"
       x="0"
       y="0"
       inkscape:label="black background" />
    <path
       d="m 65.233188,57.925746 q -0.67864,-0.882232 -2.307376,-0.882232 -1.6966,0 -3.189608,1.01796 -2.103784,1.764464 -2.103784,4.41116 0,0.542912 0.203592,0.950096 0.610776,0.814368 2.37524,0.814368 3.664656,0 4.954072,-3.73252 0.33932,-0.882232 0.33932,-1.628736 0,-0.33932 -0.271456,-0.950096 z m 20.155608,24.702496 -1.832328,5.157664 Q 79.484628,99.187057 61.70426,99.187057 H 33.404973 q -14.387168,0 -14.387168,-7.057855 0,-1.6966 0.950096,-4.343296 l 1.832328,-5.157664 q 2.03592,-5.76844 6.039896,-8.618728 3.596792,-2.578832 9.976008,-3.664656 -8.347272,-2.103784 -8.347272,-7.193584 0,-1.764464 0.746504,-3.664656 l 1.6966,-4.479023 Q 35.780213,44.895859 53.153396,44.895859 h 28.299288 q 14.522895,0 14.522895,7.193584 0,1.493008 -0.542912,2.918152 l -1.6966,4.479023 q -3.189608,8.279408 -15.337263,10.85824 5.972032,1.153688 7.397176,3.936112 0.746504,1.35728 0.746504,2.986016 0,2.171648 -1.153688,5.361256 z m -32.2354,-5.972032 q -1.01796,0.882232 -1.764464,2.986016 l -1.289416,3.325336 q -0.33932,0.950096 -0.33932,1.6966 0,2.171648 2.37524,2.171648 3.461064,0 4.886208,-3.868248 l 1.289416,-3.325336 q 0,-0.06786 0.271456,-0.882232 0.271456,-0.882232 0.271456,-1.35728 0,-0.542912 -0.271456,-0.746504 -0.542912,-0.950096 -2.37524,-0.950096 -1.6966,0 -3.05388,0.950096 z M 128.43159,61.115354 114.04442,76.113298 h 8.82232 z m 15.13367,38.071703 h -29.04579 l 3.93611,-10.722511 H 84.455717 L 88.527557,77.33485 119.94859,44.895859 h 43.36509 L 151.9804,76.113298 h 9.63668 l -4.54688,12.351248 h -9.56883 z"
       id="text4"
       style="font-size:67.864px;font-family:'LHF Convecta BASE';-inkscape-font-specification:'LHF Convecta BASE';letter-spacing:-6.36224px;display:none;fill:#ffffff;stroke:#ff8d04;stroke-width:2"
       inkscape:label="vit slinga"
       transform="matrix(0.96055278,0,-0.17447602,1.0410672,0,0)"
       aria-label="84" />
    <path
       d="m 65.233188,57.925746 q -0.67864,-0.882232 -2.307376,-0.882232 -1.6966,0 -3.189608,1.01796 -2.103784,1.764464 -2.103784,4.41116 0,0.542912 0.203592,0.950096 0.610776,0.814368 2.37524,0.814368 3.664656,0 4.954072,-3.73252 0.33932,-0.882232 0.33932,-1.628736 0,-0.33932 -0.271456,-0.950096 z m 20.155608,24.702496 -1.832328,5.157664 Q 79.484628,99.187057 61.70426,99.187057 H 33.404973 q -14.387168,0 -14.387168,-7.057855 0,-1.6966 0.950096,-4.343296 l 1.832328,-5.157664 q 2.03592,-5.76844 6.039896,-8.618728 3.596792,-2.578832 9.976008,-3.664656 -8.347272,-2.103784 -8.347272,-7.193584 0,-1.764464 0.746504,-3.664656 l 1.6966,-4.479023 Q 35.780213,44.895859 53.153396,44.895859 h 28.299288 q 14.522895,0 14.522895,7.193584 0,1.493008 -0.542912,2.918152 l -1.6966,4.479023 q -3.189608,8.279408 -15.337263,10.85824 5.972032,1.153688 7.397176,3.936112 0.746504,1.35728 0.746504,2.986016 0,2.171648 -1.153688,5.361256 z m -32.2354,-5.972032 q -1.01796,0.882232 -1.764464,2.986016 l -1.289416,3.325336 q -0.33932,0.950096 -0.33932,1.6966 0,2.171648 2.37524,2.171648 3.461064,0 4.886208,-3.868248 l 1.289416,-3.325336 q 0,-0.06786 0.271456,-0.882232 0.271456,-0.882232 0.271456,-1.35728 0,-0.542912 -0.271456,-0.746504 -0.542912,-0.950096 -2.37524,-0.950096 -1.6966,0 -3.05388,0.950096 z M 128.43159,61.115354 114.04442,76.113298 h 8.82232 z m 15.13367,38.071703 h -29.04579 l 3.93611,-10.722511 H 84.455717 L 88.527557,77.33485 119.94859,44.895859 h 43.36509 L 151.9804,76.113298 h 9.63668 l -4.54688,12.351248 h -9.56883 z"
       id="text2"
       style="font-size:67.864px;font-family:'LHF Convecta BASE';-inkscape-font-specification:'LHF Convecta BASE';letter-spacing:-6.36224px;display:inline;stroke:#ff8d04;stroke-width:2"
       transform="matrix(0.96055278,0,-0.17447602,1.0410672,0,0)"
       aria-label="84"
       inkscape:label="svart slinga" />
    <text
       xml:space="preserve"
       style="font-style:normal;font-variant:normal;font-weight:normal;font-stretch:normal;font-size:67.864px;font-family:'LHF Convecta BASE';-inkscape-font-specification:'LHF Convecta BASE';letter-spacing:-6.36224px;display:none;fill:#000000;stroke:#ff8d04;stroke-width:2;stroke-dasharray:none;stroke-opacity:1"
       x="19.017805"
       y="99.187057"
       id="text1"
       transform="matrix(0.96055277,0,-0.17447602,1.0410672,0,0)"
       inkscape:label="text svart"><tspan
         sodipodi:role="line"
         id="tspan1"
         style="font-size:67.864px;letter-spacing:-6.36224px;stroke:#ff8d04;stroke-width:2;stroke-dasharray:none;stroke-opacity:1"
         x="19.017805"
         y="99.187057">84</tspan></text>
    <text
       xml:space="preserve"
       style="font-style:normal;font-variant:normal;font-weight:normal;font-stretch:normal;font-size:67.864px;font-family:'LHF Convecta BASE';-inkscape-font-specification:'LHF Convecta BASE';letter-spacing:-6.36224px;display:none;fill:#ffffff;fill-opacity:1;stroke:#ff8d04;stroke-width:2;stroke-dasharray:none;stroke-opacity:1"
       x="19.017805"
       y="99.187057"
       id="text3"
       transform="matrix(0.96055278,0,-0.17447602,1.0410672,0,0)"
       inkscape:label="text vit"><tspan
         sodipodi:role="line"
         id="tspan2"
         style="font-size:67.864px;letter-spacing:-6.36224px;fill:#ffffff;fill-opacity:1;stroke:#ff8d04;stroke-width:2;stroke-dasharray:none;stroke-opacity:1"
         x="19.017805"
         y="99.187057">84</tspan></text>
  </g>
</svg>
